<?xml version="1.0" encoding="utf-8"?>
<svg id="svg2" viewBox="0 0 500 670" xmlns="http://www.w3.org/2000/svg" width="64" height="64" xmlns:bx="https://boxy-svg.com">
  <desc>Source: openclipart.org/detail/209545</desc>
  <defs>
    <linearGradient id="gradient-2" bx:pinned="true">
      <stop offset="0" style="stop-color: rgb(255, 255, 0);"/>
      <stop offset="0.532" style="stop-color: rgb(255, 0, 140);"/>
      <stop offset="1" style="stop-color: rgb(255, 0, 0);"/>
    </linearGradient>
    <linearGradient id="gradient-2-1" href="#gradient-2" gradientUnits="userSpaceOnUse" x1="244.916" y1="181.721" x2="244.916" y2="452.071" gradientTransform="matrix(1.148907, 0, 0, 1.097768, -28.824118, -27.503462)"/>
  </defs>
  <path d="M 165.015 172.358 C 176.188 170.675 191.852 174.518 212.093 186.746 L 215.935 189.145 L 218.194 190.634 L 223.802 189.398 C 245.173 185.048 267.109 184.631 288.635 188.206 L 295.076 189.398 L 300.669 190.634 L 302.944 189.145 C 322.506 176.633 338.071 171.718 349.866 172.045 L 352.182 172.165 L 354.258 172.417 L 355.333 172.626 L 356.038 172.79 L 358.073 173.49 C 361.392 174.95 364.076 177.676 365.558 181.146 C 371.336 194.73 373.284 209.774 371.166 224.49 L 370.502 228.467 L 369.852 231.386 L 371.59 233.814 C 379.697 245.656 384.726 259.553 386.138 274.134 L 386.463 278.529 L 386.562 282.58 C 386.562 339.999 363.129 370.207 320.966 382.078 L 317.506 382.986 L 315.641 383.418 L 315.839 385.816 L 315.953 388.155 L 316.009 393.591 L 315.98 396.764 L 315.938 453.871 C 315.924 461.422 310.571 467.783 303.466 468.661 L 301.813 468.765 L 217.065 468.765 C 209.904 468.765 203.872 463.121 203.039 455.613 L 202.94 453.871 L 202.94 442.938 C 177.261 446.811 160.142 436.623 144.887 414.966 L 137.331 403.556 C 133.375 397.657 130.904 394.932 129.01 393.963 L 128.333 393.68 C 117.98 390.135 115.155 376.119 123.248 368.449 C 126.779 365.082 131.694 363.832 136.299 365.112 C 145.367 367.912 151.469 373.572 158.475 383.567 L 166.074 395.022 C 176.81 411.093 185.284 416.753 202.925 412.76 L 202.94 402.662 L 202.685 400.16 C 202.263 396.079 202.163 391.983 202.389 387.886 L 202.629 385.131 L 202.898 383.344 L 201.372 382.986 C 159.337 372.411 134.943 344.661 132.513 291.547 L 132.372 286.929 L 132.316 282.58 C 132.331 266.449 136.779 250.661 145.141 237.136 L 147.288 233.83 L 149.012 231.401 L 148.376 228.482 C 145.819 215.405 146.526 201.835 150.424 189.13 L 151.837 184.93 L 153.334 181.161 C 154.802 177.705 157.472 174.965 160.805 173.505 L 162.84 172.805 L 165.015 172.358 Z" style="paint-order: fill; fill: url(&quot;#gradient-2-1&quot;); stroke: rgb(0, 0, 0); stroke-width: 3px; transform-box: fill-box; transform-origin: 50% 50%;" transform="matrix(1, -0.000599, 0.000599, 1, 0, 0)"/>
</svg>